<svg width="225" height="242" viewBox="0 0 225 242" fill="none" xmlns="http://www.w3.org/2000/svg">
<path d="M69.5777 201.4L77.3282 194.104L77.5138 204.734L78.6939 205.23L78.4588 192.983L77.382 192.53L68.4713 200.935L69.5777 201.4Z" fill="#A48946"/>
<path d="M67.8684 188.849L65.7129 192.407L60.7591 189.406L60.2368 190.268L65.1906 193.269L63.1264 196.677L57.5704 193.311L57.0398 194.187L63.6084 198.166L69.4117 188.587L62.6377 184.483L62.1072 185.359L67.8684 188.849Z" fill="#A48946"/>
<path d="M52.1594 176.032L51.8175 180.734C50.2237 180.1 48.7232 180.457 47.6007 181.813C46.0699 183.661 46.4823 185.872 48.6759 187.689L51.9045 190.362L59.048 181.736L58.1361 180.981L55.8706 183.717L53.5539 181.798C53.3074 181.594 53.0754 181.423 52.8332 181.264L53.1576 176.858L52.1594 176.032ZM52.9356 182.595L55.2277 184.493L51.6457 188.819L49.3536 186.921C47.6284 185.492 47.3696 183.948 48.5126 182.568C49.6351 181.212 51.2104 181.166 52.9356 182.595Z" fill="#A48946"/>
<path d="M47.2032 170.501C45.2792 168.379 43.3549 168.353 42.1341 169.46C39.1119 172.201 45.1193 176.062 42.8437 178.126C42.0141 178.879 40.7259 178.816 39.3501 177.299C38.6837 176.564 38.1564 175.53 37.9738 174.4L37.0058 174.737C37.1455 175.82 37.7543 177.039 38.6034 177.976C40.5166 180.085 42.4313 180.077 43.6521 178.97C46.7217 176.186 40.6906 172.346 42.9662 170.282C43.7839 169.541 45.0485 169.625 46.4565 171.178C47.4454 172.268 47.9753 173.71 47.932 174.829L48.9193 174.56C49.0004 173.363 48.3318 171.745 47.2032 170.501Z" fill="#A48946"/>
<path d="M37.0494 157.013L36.3509 155.979L29.9359 166.491L30.5897 167.458L42.7366 165.432L42.0469 164.411L38.8153 164.972L35.3224 159.801L37.0494 157.013ZM37.778 165.151L31.2881 166.292L34.7687 160.697L37.778 165.151Z" fill="#A48946"/>
<path d="M34.765 152.554L34.2247 151.5L24.2587 156.611L24.799 157.664L34.765 152.554Z" fill="#A48946"/>
<path d="M31.5205 145.595L28.8765 138.624L27.9191 138.987L30.1432 144.851L20.6285 148.46L21.0483 149.567L31.5205 145.595Z" fill="#A48946"/>
<path d="M27.8355 134.529L26.1439 127.267L25.1466 127.499L26.5696 133.608L16.659 135.917L16.9276 137.07L27.8355 134.529Z" fill="#A48946"/>
<path d="M24.5171 122.007L20.3743 122.384L19.849 116.616L18.8452 116.707L19.3704 122.476L15.4028 122.837L14.8138 116.368L13.794 116.46L14.4904 124.109L25.6443 123.093L24.9261 115.206L23.9063 115.299L24.5171 122.007Z" fill="#A48946"/>
<path d="M25.2732 107.566C25.4085 104.706 24.0641 103.328 22.4179 103.251C18.3425 103.058 19.8706 110.034 16.802 109.889C15.6833 109.836 14.8154 108.882 14.9122 106.836C14.959 105.845 15.3156 104.741 15.9842 103.811L15.0602 103.367C14.3946 104.233 13.965 105.526 13.9053 106.788C13.7707 109.633 15.1327 110.979 16.7788 111.057C20.9182 111.253 19.3581 104.275 22.4267 104.42C23.5294 104.472 24.3654 105.425 24.2663 107.519C24.1968 108.989 23.5542 110.384 22.7333 111.146L23.6223 111.653C24.5247 110.863 25.1939 109.244 25.2732 107.566Z" fill="#A48946"/>
<path d="M19.0328 80.5525L27.1959 87.3834L16.6633 88.828L16.311 90.0586L28.4436 88.3731L28.7652 87.2502L19.3631 79.3989L19.0328 80.5525Z" fill="#A48946"/>
<path d="M31.2914 77.3691L27.5029 75.6507L29.8955 70.3759L28.9775 69.9595L26.5849 75.2343L22.9567 73.5886L25.6401 67.6727L24.7076 67.2497L21.5351 74.2438L31.7348 78.8704L35.0065 71.6577L34.0739 71.2347L31.2914 77.3691Z" fill="#A48946"/>
<path d="M42.1562 60.2515L37.4462 60.4695C37.8871 58.8118 37.3547 57.3642 35.8756 56.4102C33.8587 55.1094 31.712 55.7811 30.1684 58.1745L27.8963 61.6974L37.3086 67.7678L37.9503 66.7728L34.9653 64.8476L36.5956 62.3198C36.769 62.0508 36.9117 61.8001 37.0409 61.5408L41.4538 61.3406L42.1562 60.2515ZM35.7312 61.8003L34.1182 64.3013L29.3986 61.2574L31.0116 58.7564C32.2257 56.874 33.7279 56.434 35.2339 57.4053C36.713 58.3592 36.9452 59.9179 35.7312 61.8003Z" fill="#A48946"/>
<path d="M47.0596 54.6737C48.938 52.5117 48.7356 50.5979 47.4916 49.517C44.4117 46.841 41.2899 53.2639 38.9709 51.2491C38.1254 50.5145 38.0352 49.2279 39.3784 47.682C40.029 46.9331 40.9931 46.287 42.0937 45.9716L41.6435 45.0505C40.5848 45.3176 39.4465 46.0667 38.6175 47.0208C36.7495 49.1707 36.985 51.0709 38.229 52.1518C41.3572 54.8697 44.4549 48.4258 46.7738 50.4407C47.6072 51.1648 47.6734 52.4304 46.2987 54.0126C45.3332 55.1237 43.9644 55.8209 42.8479 55.9106L43.232 56.859C44.4299 56.7976 45.9577 55.9419 47.0596 54.6737Z" fill="#A48946"/>
<path d="M59.2487 42.9909L60.1927 42.1747L48.9943 37.0512L48.1108 37.8152L51.5632 49.6361L52.4952 48.8303L51.5549 45.688L56.2751 41.6067L59.2487 42.9909ZM51.2538 44.6793L49.3523 38.3704L55.3204 41.1631L51.2538 44.6793Z" fill="#A48946"/>
<path d="M63.4073 40.1951L64.3894 39.5338L58.1332 30.244L57.1512 30.9053L63.4073 40.1951Z" fill="#A48946"/>
<path d="M69.9321 36.1489L76.541 32.697L76.0669 31.7894L70.5075 34.6931L65.7964 25.6733L64.7469 26.2214L69.9321 36.1489Z" fill="#A48946"/>
<path d="M80.4814 31.1763L87.4912 28.6356L87.1422 27.6729L81.2456 29.8101L77.7781 20.2431L76.6649 20.6466L80.4814 31.1763Z" fill="#A48946"/>
<path d="M92.5252 26.3971L91.6595 22.3281L97.3246 21.1227L97.1148 20.1368L91.4497 21.3422L90.6205 17.4455L96.9743 16.0935L96.7612 15.0919L89.2493 16.6903L91.5803 27.645L99.3268 25.9967L99.1137 24.9952L92.5252 26.3971Z" fill="#A48946"/>
<path d="M106.951 25.4371C109.808 25.2323 111.016 23.734 110.898 22.0903C110.606 18.0207 103.861 20.3652 103.641 17.301C103.561 16.1839 104.405 15.209 106.448 15.0625C107.437 14.9916 108.576 15.2147 109.578 15.7684L109.91 14.7983C108.972 14.2399 107.637 13.9667 106.376 14.0571C103.535 14.2608 102.36 15.7727 102.478 17.4165C102.775 21.5499 109.518 19.1735 109.738 22.2376C109.817 23.3388 108.97 24.2818 106.879 24.4317C105.411 24.537 103.949 24.0643 103.095 23.3395L102.698 24.2824C103.589 25.0846 105.276 25.5573 106.951 25.4371Z" fill="#A48946"/>
<path d="M133.033 16.0369L127.218 24.9523L124.535 14.6654L123.271 14.4614L126.383 26.3086L127.536 26.4947L134.217 16.2281L133.033 16.0369Z" fill="#A48946"/>
<path d="M137.649 27.833L138.906 23.8675L144.427 25.6178L144.732 24.6569L139.21 22.9066L140.414 19.1089L146.607 21.072L146.916 20.0958L139.595 17.775L136.21 28.4513L143.76 30.8447L144.07 29.8686L137.649 27.833Z" fill="#A48946"/>
<path d="M155.934 36.5899L155.16 31.939C156.858 32.1801 158.232 31.4799 159.004 29.8982C160.056 27.7412 159.135 25.6893 156.575 24.4403L152.808 22.602L147.896 32.6676L148.96 33.1868L150.518 29.9946L153.221 31.3137C153.509 31.454 153.775 31.566 154.048 31.6635L154.77 36.0215L155.934 36.5899ZM153.635 30.3938L150.96 29.0887L153.423 24.0415L156.098 25.3466C158.111 26.3289 158.726 27.7684 157.94 29.3789C157.168 30.9607 155.648 31.3761 153.635 30.3938Z" fill="#A48946"/>
<path d="M162.055 40.7976C164.424 42.4064 166.3 41.9786 167.226 40.6152C169.518 37.2398 162.77 34.9015 164.496 32.36C165.125 31.4334 166.392 31.1912 168.086 32.3416C168.907 32.8989 169.663 33.7795 170.107 34.8351L170.968 34.2788C170.577 33.2592 169.698 32.2178 168.653 31.5077C166.296 29.9079 164.438 30.3669 163.512 31.7303C161.184 35.1587 167.95 37.4705 166.224 40.012C165.604 40.9254 164.355 41.1411 162.621 39.9637C161.403 39.1368 160.549 37.8603 160.327 36.7623L159.431 37.2562C159.634 38.4383 160.665 39.8539 162.055 40.7976Z" fill="#A48946"/>
<path d="M175.096 51.517L176.019 52.3576L179.778 40.6307L178.915 39.8439L167.587 44.6736L168.497 45.5034L171.506 44.1972L176.118 48.4002L175.096 51.517ZM172.472 43.7786L178.511 41.1425L176.446 47.3997L172.472 43.7786Z" fill="#A48946"/>
<path d="M178.368 55.3129L179.141 56.2096L187.624 48.8962L186.851 47.9994L178.368 55.3129Z" fill="#A48946"/>
<path d="M183.16 61.3116L187.371 67.4646L188.216 66.8862L184.673 61.7104L193.071 55.9631L192.402 54.986L183.16 61.3116Z" fill="#A48946"/>
<path d="M189.347 71.1985L192.701 77.8576L193.616 77.397L190.795 71.7953L199.883 67.218L199.35 66.1605L189.347 71.1985Z" fill="#A48946"/>
<path d="M195.52 82.5884L199.457 81.2463L201.326 86.7286L202.28 86.4034L200.411 80.9211L204.182 79.6358L206.278 85.7844L207.247 85.454L204.769 78.1847L194.168 81.798L196.723 89.2945L197.693 88.9642L195.52 82.5884Z" fill="#A48946"/>
<path d="M198.184 96.8C198.726 99.6122 200.357 100.634 201.975 100.322C205.982 99.5498 202.854 93.1298 205.87 92.5483C206.97 92.3363 208.038 93.0592 208.426 95.0702C208.614 96.0443 208.527 97.2016 208.096 98.2623L209.099 98.4764C209.542 97.4785 209.655 96.1206 209.416 94.8794C208.877 92.0829 207.236 91.0955 205.618 91.4075C201.549 92.1918 204.708 98.6058 201.692 99.1873C200.607 99.3962 199.571 98.6673 199.174 96.6092C198.895 95.1638 199.191 93.6565 199.81 92.7226L198.827 92.4396C198.136 93.4201 197.866 95.1503 198.184 96.8Z" fill="#A48946"/>
<path d="M210.612 121.584L201.07 116.867L210.966 112.984L211.019 111.705L199.624 116.199L199.576 117.366L210.563 122.783L210.612 121.584Z" fill="#A48946"/>
<path d="M199.447 127.565L203.533 128.343L202.45 134.033L203.44 134.222L204.524 128.532L208.437 129.277L207.222 135.659L208.228 135.85L209.665 128.306L198.662 126.211L197.181 133.991L198.187 134.182L199.447 127.565Z" fill="#A48946"/>
<path d="M192.917 146.761L197.443 145.44C197.405 147.155 198.263 148.437 199.925 149.015C202.192 149.805 204.12 148.646 205.057 145.957L206.435 141.998L195.859 138.315L195.469 139.433L198.824 140.601L197.834 143.442C197.729 143.744 197.649 144.021 197.585 144.303L193.343 145.537L192.917 146.761ZM198.797 143.743L199.775 140.932L205.079 142.779L204.1 145.59C203.364 147.705 202.007 148.487 200.315 147.897C198.653 147.318 198.06 145.858 198.797 143.743Z" fill="#A48946"/>
<path d="M189.465 153.336C188.148 155.879 188.795 157.692 190.259 158.449C193.882 160.325 195.404 153.348 198.132 154.76C199.127 155.275 199.518 156.504 198.576 158.323C198.12 159.203 197.335 160.058 196.34 160.624L196.994 161.413C197.96 160.904 198.89 159.908 199.471 158.786C200.78 156.257 200.104 154.465 198.641 153.708C194.96 151.803 193.467 158.795 190.739 157.383C189.759 156.875 189.396 155.661 190.36 153.799C191.036 152.492 192.203 151.492 193.267 151.142L192.67 150.311C191.52 150.653 190.237 151.844 189.465 153.336Z" fill="#A48946"/>
<path d="M180.369 167.559L179.644 168.575L191.734 170.918L192.413 169.967L186.274 159.291L185.558 160.294L187.212 163.126L183.585 168.204L180.369 167.559ZM187.742 164.036L191.075 169.72L184.617 168.411L187.742 164.036Z" fill="#A48946"/>
<path d="M176.987 171.256L176.188 172.13L184.456 179.685L185.255 178.811L176.987 171.256Z" fill="#A48946"/>
<path d="M171.598 176.724L165.988 181.635L166.662 182.405L171.382 178.274L178.084 185.931L178.975 185.152L171.598 176.724Z" fill="#A48946"/>
<path d="M162.517 184.041L156.302 188.161L156.868 189.014L162.096 185.549L167.718 194.03L168.705 193.376L162.517 184.041Z" fill="#A48946"/>
<path d="M151.936 191.521L153.735 195.272L148.513 197.777L148.949 198.686L154.171 196.181L155.895 199.773L150.038 202.583L150.481 203.506L157.405 200.184L152.56 190.086L145.42 193.512L145.863 194.435L151.936 191.521Z" fill="#A48946"/>
<path d="M138.142 195.851C135.413 196.723 134.592 198.463 135.094 200.033C136.336 203.919 142.34 200.053 143.275 202.979C143.615 204.046 143.024 205.192 141.073 205.815C140.128 206.117 138.969 206.169 137.865 205.866L137.771 206.887C138.814 207.209 140.176 207.16 141.38 206.776C144.093 205.909 144.879 204.163 144.377 202.593C143.116 198.646 137.122 202.543 136.187 199.617C135.851 198.565 136.452 197.449 138.448 196.811C139.85 196.363 141.382 196.478 142.383 196.982L142.547 195.972C141.492 195.402 139.742 195.34 138.142 195.851Z" fill="#A48946"/>
<path d="M109.885 241.484C110.022 241.62 110.243 241.62 110.38 241.484L112.607 239.256C112.744 239.119 112.744 238.898 112.607 238.761C112.471 238.624 112.249 238.624 112.112 238.761L110.132 240.741L108.152 238.761C108.016 238.624 107.794 238.624 107.657 238.761C107.521 238.898 107.521 239.119 107.657 239.256L109.885 241.484ZM109.782 133.112L109.782 241.236L110.482 241.236L110.482 133.112L109.782 133.112Z" fill="#A48946"/>
</svg>
