<svg width="617" height="718" viewBox="0 0 617 718" fill="none" xmlns="http://www.w3.org/2000/svg">
<path d="M604.22 629.518C605.475 628.564 606.343 627.285 606.604 626.013L605.483 625.601C605.289 626.655 604.609 627.743 603.58 628.525C602.098 629.651 600.737 629.517 599.656 628.192L599.271 627.721L601.798 625.802C604.082 624.066 604.052 622.467 603.079 621.275C601.985 619.936 600.136 619.863 598.335 621.231C597.019 622.23 596.478 623.429 596.642 624.591L595.657 623.384L594.628 624.166L598.546 628.964C600.18 630.965 602.162 631.081 604.22 629.518ZM598.842 622.181C600.113 621.216 601.311 621.212 602.044 622.109C602.693 622.904 602.674 623.872 601.131 625.045L598.634 626.941L597.601 625.675C597.196 624.338 597.631 623.101 598.842 622.181Z" fill="#A48946"/>
<path d="M572.502 654.542C572.016 654.84 571.901 655.424 572.204 655.883C572.487 656.312 573.089 656.432 573.559 656.144C574.028 655.855 574.16 655.262 573.877 654.834C573.584 654.39 572.971 654.254 572.502 654.542ZM566.376 644.019L565.227 644.725L570.732 653.066L571.881 652.36L566.376 644.019Z" fill="#A48946"/>
<path d="M542.508 657.843L541.307 658.458L548.105 670.808L549.306 670.193L542.508 657.843Z" fill="#A48946"/>
<path d="M517.59 669.815L516.346 670.336L522.128 683.193L523.373 682.672L517.59 669.815Z" fill="#A48946"/>
<path d="M484.666 687.469C485.609 690.319 488.203 691.687 490.89 690.859C493.578 690.031 494.894 687.419 493.963 684.606C493.031 681.792 490.329 680.398 487.351 681.315C485.844 681.779 484.697 682.729 484.178 684.002L485.179 684.608C485.631 683.554 486.529 682.821 487.691 682.463C489.779 681.82 491.74 682.666 492.542 684.606L484.553 687.067C484.6 687.211 484.63 687.361 484.666 687.469ZM490.526 689.759C488.656 690.335 486.864 689.455 486.086 687.648L492.859 685.562C493.31 687.47 492.378 689.188 490.526 689.759Z" fill="#A48946"/>
<path d="M447.588 692.031C445.031 692.517 443.762 693.899 444.108 695.593C444.876 699.354 450.834 696.153 451.374 698.796C451.564 699.727 450.921 700.565 449.147 700.901C448.14 701.093 447.063 701.046 446.083 700.614L445.721 701.785C446.657 702.187 448.11 702.278 449.379 702.037C451.881 701.562 453.019 700.108 452.692 698.507C451.901 694.635 445.946 697.855 445.426 695.304C445.228 694.336 445.864 693.558 447.731 693.203C449.112 692.941 450.536 693.173 451.445 693.639L451.83 692.483C450.887 691.946 449.212 691.723 447.588 692.031Z" fill="#A48946"/>
<path d="M377.409 713.196L382.525 701.638L387.631 713.185L389.151 713.183L383.245 699.89L381.858 699.891L375.984 713.197L377.409 713.196Z" fill="#A48946"/>
<path d="M330.076 702.544C329.68 705.52 331.424 707.823 334.215 708.169C337.005 708.515 339.339 706.679 339.73 703.741C340.122 700.803 338.291 698.432 335.199 698.049C333.634 697.855 332.182 698.249 331.155 699.194L331.794 700.154C332.664 699.381 333.796 699.081 335.003 699.23C337.171 699.499 338.572 701.07 338.447 703.161L330.15 702.132C330.13 702.283 330.091 702.431 330.076 702.544ZM334.368 707.02C332.426 706.779 331.192 705.248 331.281 703.287L338.314 704.159C337.886 706.078 336.291 707.258 334.368 707.02Z" fill="#A48946"/>
<path d="M293.98 699.786L293.509 701.685L294.767 701.976L297.177 692.277L295.863 691.973L294.635 696.915C294.067 699.201 292.506 700.205 290.47 699.735C290.377 699.713 290.271 699.669 290.16 699.643L289.844 700.916C291.639 701.331 293.049 700.935 293.98 699.786Z" fill="#A48946"/>
<path d="M262.708 683.221C260.241 682.391 258.419 682.961 257.832 684.587C256.527 688.196 263.359 688.349 262.442 690.887C262.119 691.78 261.124 692.187 259.413 691.612C258.441 691.285 257.534 690.719 256.912 689.869L255.986 690.7C256.585 691.502 257.794 692.29 259.019 692.702C261.432 693.513 263.178 692.818 263.734 691.281C265.077 687.564 258.238 687.429 259.123 684.981C259.459 684.052 260.417 683.693 262.218 684.298C263.551 684.746 264.661 685.641 265.205 686.485L266.143 685.678C265.607 684.756 264.275 683.747 262.708 683.221Z" fill="#A48946"/>
<path d="M221.825 678.823C223.254 679.489 224.818 679.673 226.114 679.334L226.014 678.177C224.95 678.477 223.644 678.372 222.473 677.826C220.785 677.039 220.323 675.798 221.089 674.269L221.361 673.725L224.238 675.065C226.838 676.277 228.312 675.539 229.001 674.163C229.776 672.617 229.046 670.978 226.997 670.023C225.498 669.325 224.15 669.388 223.139 670.048L223.837 668.655L222.666 668.11L219.892 673.648C218.735 675.958 219.482 677.731 221.825 678.823ZM226.331 670.886C227.777 671.56 228.298 672.599 227.779 673.635C227.319 674.553 226.411 674.967 224.654 674.149L221.812 672.825L222.544 671.364C223.613 670.416 224.953 670.244 226.331 670.886Z" fill="#A48946"/>
<path d="M184.55 662.321C184.06 662.03 183.466 662.186 183.17 662.651C182.895 663.084 183.046 663.659 183.52 663.94C183.995 664.221 184.605 664.074 184.881 663.642C185.166 663.193 185.025 662.601 184.55 662.321ZM191.675 652.393L190.514 651.706L185.151 660.138L186.312 660.825L191.675 652.393Z" fill="#A48946"/>
<path d="M168.271 637.825L167.167 637.05L158.676 648.304L159.78 649.079L168.271 637.825Z" fill="#A48946"/>
<path d="M146.123 621.524L145.082 620.665L135.726 631.211L136.766 632.07L146.123 621.524Z" fill="#A48946"/>
<path d="M115.108 600.619C112.9 602.654 112.808 605.502 114.787 607.499C116.766 609.497 119.775 609.539 121.954 607.53C124.133 605.521 124.2 602.567 122.007 600.354C120.898 599.233 119.502 598.634 118.091 598.721L117.984 599.853C119.161 599.801 120.245 600.274 121.101 601.138C122.638 602.69 122.742 604.764 121.312 606.288L115.428 600.349C115.317 600.452 115.191 600.542 115.108 600.619ZM115.639 606.714C114.262 605.324 114.265 603.384 115.584 601.936L120.571 606.971C119.012 608.176 117.003 608.091 115.639 606.714Z" fill="#A48946"/>
<path d="M94.4918 570.605C92.8845 568.558 91.0407 568.023 89.6445 569.043C86.5452 571.307 92.1876 575.204 90.0089 576.795C89.2417 577.356 88.1813 577.143 87.0667 575.723C86.4332 574.916 85.9874 573.948 85.9387 572.902L84.7004 573.078C84.7563 574.071 85.333 575.39 86.1308 576.407C87.7029 578.409 89.553 578.798 90.8725 577.834C94.0639 575.503 88.4062 571.617 90.5082 570.082C91.306 569.499 92.3087 569.731 93.4819 571.225C94.3501 572.331 94.7841 573.684 94.7706 574.681L96.0052 574.532C96.0684 573.475 95.5125 571.905 94.4918 570.605Z" fill="#A48946"/>
<path d="M44.1184 518.631L56.8861 518.279L48.7399 527.749L49.4271 529.104L58.7935 518.178L58.1664 516.94L43.4742 517.36L44.1184 518.631Z" fill="#A48946"/>
<path d="M33.0706 472.983C30.2164 473.913 28.9194 476.474 29.8491 479.128C30.7787 481.782 33.4685 483.083 36.2866 482.164C39.1047 481.246 40.4245 478.578 39.3944 475.637C38.873 474.149 37.8725 473.016 36.5657 472.503L35.986 473.491C37.0682 473.938 37.8417 474.824 38.2437 475.972C38.9661 478.034 38.175 479.97 36.2381 480.761L33.4743 472.871C33.3298 472.919 33.179 472.948 33.0706 472.983ZM30.951 478.768C30.3041 476.922 31.1336 475.153 32.9378 474.385L35.2807 481.073C33.3635 481.518 31.5917 480.598 30.951 478.768Z" fill="#A48946"/>
<path d="M19.9896 440.628L18.076 441.038L18.3657 442.297L28.1383 440.205L27.8358 438.89L22.8566 439.956C20.5528 440.449 18.9668 439.487 18.4981 437.451C18.4768 437.358 18.4698 437.243 18.4443 437.132L17.1623 437.406C17.5756 439.202 18.5485 440.296 19.9896 440.628Z" fill="#A48946"/>
<path d="M21.472 406.21C21.1541 403.626 19.8547 402.245 18.1369 402.442C14.3238 402.879 17.135 409.078 14.4545 409.385C13.5107 409.493 12.7148 408.781 12.4943 406.989C12.369 405.971 12.4867 404.906 12.984 403.969L11.8361 403.508C11.3719 404.402 11.185 405.839 11.3428 407.121C11.6538 409.648 13.0337 410.905 14.6571 410.719C18.5834 410.27 15.7533 404.073 18.3394 403.777C19.321 403.664 20.058 404.364 20.2901 406.25C20.4618 407.645 20.1358 409.04 19.6103 409.904L20.7417 410.386C21.3403 409.495 21.6739 407.851 21.472 406.21Z" fill="#A48946"/>
<path d="M8.01278 368.755C8.01863 370.332 8.51813 371.813 9.37686 372.817L10.3816 372.205C9.65657 371.391 9.19606 370.176 9.19126 368.884C9.18435 367.022 10.1117 366.05 11.8217 366.044L12.4297 366.042L12.4415 369.215C12.4522 372.084 13.7478 373.068 15.2868 373.062C17.0158 373.056 18.1886 371.665 18.1803 369.404C18.1741 367.751 17.5427 366.575 16.5145 365.971L18.0725 365.966L18.0677 364.674L11.8737 364.695C9.28975 364.704 8.00318 366.171 8.01278 368.755ZM17.1155 369.199C17.1214 370.795 16.4029 371.728 15.2439 371.732C14.2179 371.736 13.4556 371.112 13.4484 369.174L13.4367 366.039L15.0707 366.033C16.3837 366.56 17.1098 367.679 17.1155 369.199Z" fill="#A48946"/>
<path d="M7.14677 329.281C7.20379 328.713 6.81051 328.257 6.2619 328.206C5.75113 328.158 5.29123 328.554 5.23611 329.102C5.18099 329.65 5.57238 330.126 6.08315 330.173C6.61283 330.223 7.09165 329.829 7.14677 329.281ZM19.2044 331.096L19.3394 329.753L9.3888 328.822L9.25385 330.165L19.2044 331.096Z" fill="#A48946"/>
<path d="M22.5927 304.4L22.8366 303.073L8.94027 300.697L8.69643 302.024L22.5927 304.4Z" fill="#A48946"/>
<path d="M28.1542 278.049L28.5051 276.746L14.8302 273.319L14.4793 274.621L28.1542 278.049Z" fill="#A48946"/>
<path d="M34.2493 241.927C31.4221 240.918 28.7434 242.12 27.736 244.745C26.7286 247.37 27.9729 250.013 30.7644 251.01C33.5558 252.006 36.3222 250.735 37.4385 247.826C38.0035 246.353 37.9635 244.867 37.2814 243.675L36.186 244.091C36.7369 245.095 36.7604 246.253 36.3248 247.388C35.5421 249.428 33.6641 250.452 31.6413 249.891L34.6362 242.086C34.493 242.035 34.3567 241.966 34.2493 241.927ZM28.8275 245.135C29.5286 243.308 31.3275 242.437 33.2318 242.936L30.6929 249.552C28.9111 248.735 28.1333 246.944 28.8275 245.135Z" fill="#A48946"/>
<path d="M53.2101 211.014C54.4208 208.71 54.1207 206.872 52.5674 206.113C49.1193 204.427 47.9323 211.056 45.5084 209.871C44.655 209.453 44.3945 208.438 45.2341 206.84C45.7113 205.932 46.4192 205.115 47.3719 204.609L46.6729 203.612C45.772 204.101 44.7937 205.188 44.1928 206.331C43.0087 208.585 43.4472 210.364 44.9151 211.082C48.4656 212.817 49.6355 206.18 51.9741 207.324C52.8617 207.758 53.0797 208.731 52.196 210.413C51.5421 211.658 50.4708 212.635 49.5364 213.066L50.2095 214.071C51.2211 213.657 52.4413 212.478 53.2101 211.014Z" fill="#A48946"/>
<path d="M79.6224 144.713L85.6278 155.647L73.195 152.661L72.2393 153.843L86.5706 157.259L87.4427 156.181L80.5184 143.604L79.6224 144.713Z" fill="#A48946"/>
<path d="M117.362 115.286C115.214 113.189 112.261 113.145 110.225 115.085C108.19 117.026 108.2 119.928 110.321 121.998C112.442 124.068 115.505 124.087 117.761 121.937C118.902 120.849 119.498 119.493 119.383 118.134L118.208 118.048C118.283 119.183 117.812 120.235 116.931 121.074C115.35 122.582 113.202 122.714 111.596 121.359L117.648 115.591C117.539 115.485 117.444 115.366 117.362 115.286ZM111.055 115.895C112.471 114.545 114.481 114.517 116.006 115.766L110.876 120.656C109.599 119.171 109.652 117.232 111.055 115.895Z" fill="#A48946"/>
<path d="M141.835 89.7213L140.59 88.2116L139.565 88.9982L145.924 96.7081L146.994 95.8868L143.754 91.9585C142.255 90.141 142.419 88.34 144.077 87.0675C144.152 87.0097 144.255 86.955 144.345 86.8856L143.511 85.8742C142.049 86.9962 141.486 88.3136 141.835 89.7213Z" fill="#A48946"/>
<path d="M174.631 76.1591C176.843 74.7863 177.512 73.0522 176.552 71.6139C174.423 68.4211 170.046 73.5292 168.549 71.2847C168.022 70.4945 168.309 69.4888 169.843 68.5369C170.715 67.9958 171.74 67.6502 172.82 67.695L172.719 66.4835C171.692 66.4502 170.298 66.8914 169.2 67.5727C167.037 68.9154 166.517 70.6685 167.424 72.0278C169.617 75.3154 173.983 70.1915 175.427 72.3569C175.976 73.1788 175.672 74.127 174.058 75.129C172.863 75.8705 171.443 76.171 170.417 76.0702L170.491 77.276C171.575 77.43 173.227 77.0308 174.631 76.1591Z" fill="#A48946"/>
<path d="M203.447 47.9157C202.022 48.5918 200.908 49.6673 200.387 50.8607L201.393 51.4971C201.803 50.5036 202.695 49.5761 203.862 49.0222C205.544 48.2239 206.843 48.6378 207.62 50.1611L207.896 50.7027L205.029 52.0631C202.437 53.2931 202.132 54.8676 202.831 56.2386C203.617 57.7788 205.405 58.2336 207.447 57.2643C208.941 56.5556 209.72 55.492 209.803 54.3173L210.511 55.7052L211.678 55.1513L208.864 49.6335C207.69 47.3316 205.782 46.8079 203.447 47.9157ZM207.153 56.2268C205.711 56.9111 204.542 56.667 204.015 55.6346C203.549 54.7206 203.77 53.7747 205.521 52.9439L208.353 51.5998L209.096 53.0554C209.211 54.4514 208.526 55.5751 207.153 56.2268Z" fill="#A48946"/>
<path d="M239.882 29.7914C240.418 29.5985 240.654 29.0494 240.455 28.5355C240.27 28.057 239.708 27.815 239.19 28.0015C238.672 28.188 238.418 28.7435 238.603 29.222C238.795 29.7182 239.364 29.9779 239.882 29.7914ZM243.63 41.3826L244.899 40.926L241.296 31.6043L240.026 32.0609L243.63 41.3826Z" fill="#A48946"/>
<path d="M269.95 32.6492L271.25 32.2909L267.248 18.7729L265.947 19.1311L269.95 32.6492Z" fill="#A48946"/>
<path d="M296.897 25.9335L298.221 25.6754L295.331 11.8769L294.006 12.135L296.897 25.9335Z" fill="#A48946"/>
<path d="M332.878 15.2489C332.57 12.2627 330.334 10.3968 327.535 10.6653C324.736 10.9338 322.891 13.2295 323.195 16.1779C323.499 19.1262 325.835 21.0398 328.937 20.7422C330.507 20.5916 331.829 19.8922 332.609 18.7485L331.762 17.9517C331.096 18.8937 330.062 19.4318 328.852 19.5479C326.677 19.7566 324.946 18.5293 324.58 16.4648L332.902 15.6665C332.887 15.5153 332.89 15.3623 332.878 15.2489ZM327.654 11.8182C329.602 11.6313 331.161 12.856 331.532 14.7864L324.477 15.4631C324.447 13.5001 325.725 12.0033 327.654 11.8182Z" fill="#A48946"/>
<path d="M370.147 18.2227C372.749 18.2615 374.287 17.1632 374.315 15.4345C374.376 11.597 367.865 13.5331 367.909 10.8355C367.924 9.8856 368.733 9.19459 370.538 9.22149C371.564 9.23678 372.605 9.49933 373.469 10.1203L374.075 9.04619C373.248 8.4638 371.848 8.0819 370.556 8.06264C368.011 8.02469 366.585 9.21958 366.559 10.8534C366.496 14.8049 373.007 12.8497 372.965 15.4524C372.95 16.4402 372.16 17.0745 370.26 17.0462C368.855 17.0253 367.514 16.5112 366.726 15.8724L366.101 16.9272C366.906 17.6423 368.494 18.198 370.147 18.2227Z" fill="#A48946"/>
<path d="M443.383 11.6023L435.879 21.8579L433.368 9.55527L431.879 9.25088L434.796 23.4206L436.155 23.6984L444.779 11.8877L443.383 11.6023Z" fill="#A48946"/>
<path d="M487.405 31.5066C488.432 28.6858 487.215 26.0875 484.551 25.1853C481.888 24.2831 479.205 25.6004 478.191 28.3856C477.177 31.1708 478.465 33.8531 481.416 34.8528C482.91 35.3588 484.418 35.2681 485.628 34.5548L485.207 33.4897C484.188 34.0672 483.013 34.1304 481.861 33.7402C479.792 33.0392 478.755 31.2239 479.326 29.2112L487.244 31.8933C487.296 31.7505 487.366 31.6138 487.405 31.5066ZM484.155 26.2744C486.008 26.9022 486.89 28.6449 486.383 30.5387L479.67 28.2649C480.502 26.4809 482.319 25.6526 484.155 26.2744Z" fill="#A48946"/>
<path d="M522.099 41.4547L522.967 39.7005L521.793 39.1604L517.362 48.1186L518.588 48.6826L520.845 44.1183C521.89 42.0064 523.636 41.3464 525.534 42.2202C525.621 42.2599 525.716 42.3246 525.819 42.3722L526.4 41.1971C524.726 40.4266 523.258 40.5246 522.099 41.4547Z" fill="#A48946"/>
<path d="M549.15 63.9017C551.396 65.2166 553.305 65.0355 554.226 63.572C556.269 60.3233 549.595 58.7714 551.032 56.4876C551.538 55.6835 552.601 55.4916 554.158 56.4033C555.044 56.9216 555.814 57.6586 556.245 58.6147L557.33 57.9955C556.912 57.0907 555.891 56.0749 554.776 55.4223C552.578 54.1362 550.717 54.4553 549.847 55.8384C547.743 59.1836 554.427 60.7194 553.041 62.9228C552.515 63.759 551.499 63.9124 549.859 62.9526C548.646 62.2424 547.744 61.1428 547.39 60.209L546.298 60.8025C546.629 61.8102 547.723 63.0667 549.15 63.9017Z" fill="#A48946"/>
<path d="M588.169 76.4788C586.906 75.5337 585.41 75.0305 584.068 75.0931L583.923 76.2421C585.03 76.1692 586.289 76.5426 587.324 77.3169C588.814 78.4327 589.006 79.7388 587.934 81.0711L587.553 81.5448L585.013 79.6433C582.716 77.924 581.116 78.3386 580.151 79.5376C579.067 80.8848 579.439 82.6338 581.249 83.9888C582.572 84.9794 583.908 85.1968 585.038 84.7618L584.062 85.9757L585.096 86.7499L588.979 81.924C590.598 79.9107 590.237 78.0273 588.169 76.4788ZM582.083 83.285C580.806 82.3286 580.513 81.2081 581.239 80.3051C581.883 79.5057 582.861 79.2893 584.412 80.4507L586.922 82.3294L585.898 83.6025C584.65 84.3052 583.3 84.1959 582.083 83.285Z" fill="#A48946"/>
<path d="M621.04 100.115C621.46 100.5 622.075 100.471 622.462 100.079C622.822 99.7135 622.793 99.1204 622.387 98.748C621.981 98.3755 621.352 98.3913 620.992 98.7567C620.619 99.1355 620.634 99.7421 621.04 100.115ZM611.986 108.325L612.98 109.237L619.996 102.12L619.002 101.208L611.986 108.325Z" fill="#A48946"/>
</svg>
